<svg xmlns="http://www.w3.org/2000/svg" xmlns:xlink="http://www.w3.org/1999/xlink" width="500" zoomAndPan="magnify" viewBox="0 0 375 374.999991" height="500" preserveAspectRatio="xMidYMid meet" version="1.2"><defs><clipPath id="59b5e77a9b"><path d="M 152.472656 100.109375 L 222.222656 100.109375 L 222.222656 200.609375 L 152.472656 200.609375 Z M 152.472656 100.109375 "/></clipPath><clipPath id="e4f593ce49"><path d="M 165.683594 124.511719 L 209.183594 124.511719 L 209.183594 168.011719 L 165.683594 168.011719 Z M 165.683594 124.511719 "/></clipPath></defs><g id="e3e5dcdc49"><g clip-rule="nonzero" clip-path="url(#59b5e77a9b)"><path style="fill:none;stroke-width:18;stroke-linecap:butt;stroke-linejoin:miter;stroke:#662d91;stroke-opacity:1;stroke-miterlimit:10;" d="M 45.776057 8.999631 L 180.572595 8.999631 C 182.980582 8.999631 185.375894 9.240261 187.74586 9.708857 C 190.115825 10.177453 192.409749 10.874014 194.640305 11.798541 C 196.87086 12.723068 198.987354 13.850231 201.002458 15.192694 C 203.004889 16.535158 204.86791 18.067592 206.566174 19.764669 C 208.277111 21.47441 209.797945 23.336129 211.141348 25.337159 C 212.48475 27.350854 213.612702 29.465868 214.537876 31.694864 C 215.463049 33.92386 216.160098 36.228845 216.629022 38.597153 C 217.110619 40.965461 217.338744 43.359099 217.338744 45.765402 L 217.338744 279.632683 C 217.338744 282.038986 217.110619 284.432624 216.629022 286.800932 C 216.160098 289.16924 215.463049 291.474225 214.537876 293.703221 C 213.612702 295.932217 212.48475 298.04723 211.141348 300.060926 C 209.797945 302.061956 208.277111 303.923675 206.566174 305.633416 C 204.86791 307.343157 203.004889 308.862927 201.002458 310.205391 C 198.987354 311.547854 196.87086 312.675017 194.640305 313.599544 C 192.409749 314.524071 190.115825 315.220632 187.74586 315.689228 C 185.375894 316.170488 182.980582 316.398454 180.572595 316.398454 L 45.776057 316.398454 C 43.355397 316.398454 40.960084 316.170488 38.602793 315.689228 C 36.232827 315.220632 33.92623 314.524071 31.695674 313.599544 C 29.465118 312.675017 27.348625 311.547854 25.346194 310.205391 C 23.33109 308.862927 21.480743 307.343157 19.769805 305.633416 C 18.058867 303.923675 16.538034 302.061956 15.194631 300.060926 C 13.851228 298.04723 12.723277 295.932217 11.798103 293.703221 C 10.872929 291.474225 10.175881 289.16924 9.706957 286.800932 C 9.238033 284.432624 8.997235 282.038986 8.997235 279.632683 L 8.997235 45.765402 C 8.997235 43.359099 9.238033 40.965461 9.706957 38.597153 C 10.175881 36.228845 10.872929 33.92386 11.798103 31.694864 C 12.723277 29.465868 13.851228 27.350854 15.194631 25.337159 C 16.538034 23.336129 18.058867 21.47441 19.769805 19.764669 C 21.480743 18.067592 23.33109 16.535158 25.346194 15.192694 C 27.348625 13.850231 29.465118 12.723068 31.695674 11.798541 C 33.92623 10.874014 36.232827 10.177453 38.602793 9.708857 C 40.960084 9.240261 43.355397 8.999631 45.776057 8.999631 Z M 45.776057 8.999631 " transform="matrix(0.308219,0,0,0.308435,152.472974,100.177325)"/></g><path style=" stroke:none;fill-rule:nonzero;fill:#662d91;fill-opacity:1;" d="M 178.101562 102.953125 L 196.605469 102.953125 C 197.027344 102.953125 197.433594 103.035156 197.824219 103.195312 C 198.214844 103.355469 198.558594 103.585938 198.855469 103.886719 C 199.15625 104.183594 199.382812 104.527344 199.546875 104.917969 C 199.707031 105.308594 199.789062 105.714844 199.789062 106.136719 L 199.789062 107.328125 C 199.789062 107.753906 199.707031 108.15625 199.546875 108.546875 C 199.382812 108.9375 199.15625 109.28125 198.855469 109.582031 C 198.558594 109.878906 198.214844 110.109375 197.824219 110.269531 C 197.433594 110.433594 197.027344 110.511719 196.605469 110.511719 L 178.101562 110.511719 C 177.679688 110.511719 177.273438 110.433594 176.882812 110.269531 C 176.496094 110.109375 176.152344 109.878906 175.851562 109.582031 C 175.554688 109.28125 175.324219 108.9375 175.164062 108.546875 C 175 108.15625 174.921875 107.753906 174.921875 107.328125 L 174.921875 106.136719 C 174.921875 105.714844 175 105.308594 175.164062 104.917969 C 175.324219 104.527344 175.554688 104.183594 175.851562 103.886719 C 176.152344 103.585938 176.496094 103.355469 176.882812 103.195312 C 177.273438 103.035156 177.679688 102.953125 178.101562 102.953125 Z M 178.101562 102.953125 "/><path style=" stroke:none;fill-rule:nonzero;fill:#662d91;fill-opacity:1;" d="M 192.863281 185.21875 C 192.863281 185.582031 192.828125 185.9375 192.757812 186.292969 C 192.6875 186.648438 192.582031 186.992188 192.441406 187.328125 C 192.304688 187.664062 192.132812 187.980469 191.933594 188.28125 C 191.734375 188.582031 191.503906 188.859375 191.25 189.117188 C 190.992188 189.371094 190.714844 189.601562 190.414062 189.800781 C 190.113281 190.003906 189.796875 190.171875 189.460938 190.3125 C 189.128906 190.449219 188.785156 190.554688 188.429688 190.625 C 188.074219 190.695312 187.714844 190.730469 187.355469 190.730469 C 186.992188 190.730469 186.632812 190.695312 186.28125 190.625 C 185.925781 190.554688 185.582031 190.449219 185.246094 190.3125 C 184.914062 190.171875 184.59375 190.003906 184.292969 189.800781 C 183.992188 189.601562 183.714844 189.371094 183.460938 189.117188 C 183.203125 188.859375 182.976562 188.582031 182.773438 188.28125 C 182.574219 187.980469 182.402344 187.664062 182.265625 187.328125 C 182.128906 186.992188 182.023438 186.648438 181.953125 186.292969 C 181.882812 185.9375 181.847656 185.582031 181.847656 185.21875 C 181.847656 184.855469 181.882812 184.5 181.953125 184.144531 C 182.023438 183.789062 182.128906 183.445312 182.265625 183.109375 C 182.402344 182.773438 182.574219 182.457031 182.773438 182.15625 C 182.976562 181.855469 183.203125 181.578125 183.460938 181.320312 C 183.714844 181.066406 183.992188 180.835938 184.292969 180.636719 C 184.59375 180.433594 184.914062 180.265625 185.246094 180.125 C 185.582031 179.988281 185.925781 179.882812 186.28125 179.8125 C 186.632812 179.742188 186.992188 179.707031 187.355469 179.707031 C 187.714844 179.707031 188.074219 179.742188 188.429688 179.8125 C 188.785156 179.882812 189.128906 179.988281 189.460938 180.125 C 189.796875 180.265625 190.113281 180.433594 190.414062 180.636719 C 190.714844 180.835938 190.992188 181.066406 191.25 181.320312 C 191.503906 181.578125 191.734375 181.855469 191.933594 182.15625 C 192.132812 182.457031 192.304688 182.773438 192.441406 183.109375 C 192.582031 183.445312 192.6875 183.789062 192.757812 184.144531 C 192.828125 184.5 192.863281 184.855469 192.863281 185.21875 Z M 192.863281 185.21875 "/><path style=" stroke:none;fill-rule:nonzero;fill:#c61c9b;fill-opacity:1;" d="M 187.433594 136.34375 C 181.957031 136.351562 177.523438 140.785156 177.515625 146.257812 C 177.523438 151.734375 181.957031 156.167969 187.429688 156.171875 C 192.90625 156.167969 197.339844 151.734375 197.34375 146.257812 C 197.335938 140.789062 192.902344 136.355469 187.433594 136.34375 Z M 187.433594 136.34375 "/><path style=" stroke:none;fill-rule:nonzero;fill:#c61c9b;fill-opacity:1;" d="M 206.179688 132.707031 C 206.179688 133.003906 206.152344 133.296875 206.09375 133.589844 C 206.035156 133.878906 205.949219 134.164062 205.835938 134.4375 C 205.722656 134.710938 205.585938 134.972656 205.417969 135.21875 C 205.253906 135.464844 205.066406 135.695312 204.859375 135.902344 C 204.648438 136.113281 204.417969 136.300781 204.171875 136.464844 C 203.925781 136.628906 203.664062 136.769531 203.390625 136.882812 C 203.117188 136.996094 202.835938 137.082031 202.542969 137.140625 C 202.25 137.199219 201.957031 137.226562 201.660156 137.226562 C 201.363281 137.226562 201.070312 137.199219 200.777344 137.140625 C 200.488281 137.082031 200.207031 136.996094 199.929688 136.882812 C 199.65625 136.769531 199.394531 136.628906 199.148438 136.464844 C 198.902344 136.300781 198.675781 136.113281 198.464844 135.902344 C 198.253906 135.695312 198.066406 135.464844 197.902344 135.21875 C 197.738281 134.972656 197.597656 134.710938 197.484375 134.4375 C 197.371094 134.164062 197.285156 133.878906 197.226562 133.589844 C 197.167969 133.296875 197.140625 133.003906 197.140625 132.707031 C 197.140625 132.410156 197.167969 132.117188 197.226562 131.824219 C 197.285156 131.535156 197.371094 131.25 197.484375 130.976562 C 197.597656 130.703125 197.738281 130.441406 197.902344 130.195312 C 198.066406 129.949219 198.253906 129.722656 198.464844 129.511719 C 198.675781 129.300781 198.902344 129.113281 199.148438 128.949219 C 199.394531 128.785156 199.65625 128.644531 199.929688 128.53125 C 200.207031 128.417969 200.488281 128.332031 200.777344 128.273438 C 201.070312 128.214844 201.363281 128.1875 201.660156 128.1875 C 201.957031 128.1875 202.25 128.214844 202.542969 128.273438 C 202.835938 128.332031 203.117188 128.417969 203.390625 128.53125 C 203.664062 128.644531 203.925781 128.785156 204.171875 128.949219 C 204.417969 129.113281 204.648438 129.300781 204.859375 129.511719 C 205.066406 129.722656 205.253906 129.949219 205.417969 130.195312 C 205.585938 130.441406 205.722656 130.703125 205.835938 130.976562 C 205.949219 131.25 206.035156 131.535156 206.09375 131.824219 C 206.152344 132.117188 206.179688 132.410156 206.179688 132.707031 Z M 206.179688 132.707031 "/><g clip-rule="nonzero" clip-path="url(#e4f593ce49)"><path style=" stroke:none;fill-rule:nonzero;fill:#c61c9b;fill-opacity:1;" d="M 187.433594 168.011719 C 199.429688 168.011719 209.183594 158.257812 209.183594 146.261719 C 209.183594 143.125 208.527344 140.09375 207.230469 137.246094 L 207.226562 137.246094 L 207.039062 136.828125 L 206.734375 137.167969 C 205.996094 138.011719 205.050781 138.65625 204.007812 139.046875 L 203.71875 139.15625 L 203.835938 139.4375 C 204.695312 141.445312 205.195312 143.78125 205.195312 146.234375 C 205.195312 146.242188 205.195312 146.246094 205.195312 146.253906 C 205.195312 156.046875 197.226562 164.027344 187.425781 164.027344 C 177.621094 164.027344 169.65625 156.054688 169.65625 146.257812 C 169.65625 136.460938 177.636719 128.484375 187.429688 128.484375 C 190.089844 128.484375 192.65625 129.0625 195.042969 130.203125 L 195.324219 130.339844 L 195.445312 130.058594 C 195.90625 129.003906 196.585938 128.117188 197.4375 127.433594 L 197.449219 127.425781 L 197.804688 127.136719 L 197.398438 126.921875 C 194.519531 125.402344 191.105469 124.511719 187.484375 124.511719 C 187.46875 124.511719 187.449219 124.511719 187.433594 124.511719 C 175.4375 124.511719 165.683594 134.265625 165.683594 146.261719 C 165.683594 158.257812 175.4375 168.011719 187.433594 168.011719 Z M 187.433594 168.011719 "/></g><g style="fill:#c61c9b;fill-opacity:1;"><g transform="translate(104.608002, 249.832458)"><path style="stroke:none" d="M 11.796875 0 L 4.671875 0 L 4.671875 -36 L 11.796875 -36 Z M 11.796875 0 "/></g></g><g style="fill:#c61c9b;fill-opacity:1;"><g transform="translate(121.106375, 249.832458)"><path style="stroke:none" d="M 11.203125 0 L 4.671875 0 L 4.671875 -36 L 13.984375 -36 L 23.09375 -9.53125 L 23.625 -9.53125 L 32.6875 -36 L 41.765625 -36 L 41.765625 0 L 35.015625 0 L 35.015625 -23.796875 L 34.40625 -23.890625 L 26.078125 0 L 20.140625 0 L 11.828125 -23.890625 L 11.203125 -23.796875 Z M 11.203125 0 "/></g></g><g style="fill:#c61c9b;fill-opacity:1;"><g transform="translate(167.572695, 249.832458)"><path style="stroke:none" d="M 34.546875 0 L 27.0625 0 L 24.359375 -8.296875 L 10.5625 -8.296875 L 7.859375 0 L 0.546875 0 L 12.984375 -36 L 22.109375 -36 Z M 17.109375 -28.5 L 12.484375 -14.28125 L 22.390625 -14.28125 L 17.734375 -28.5 Z M 17.109375 -28.5 "/></g></g><g style="fill:#c61c9b;fill-opacity:1;"><g transform="translate(201.849897, 249.832458)"><path style="stroke:none" d="M 17.484375 0.515625 C 14.484375 0.515625 11.882812 -0.164062 9.6875 -1.53125 C 7.5 -2.90625 5.804688 -4.972656 4.609375 -7.734375 C 3.421875 -10.503906 2.828125 -13.925781 2.828125 -18 C 2.828125 -22.101562 3.539062 -25.535156 4.96875 -28.296875 C 6.40625 -31.066406 8.390625 -33.128906 10.921875 -34.484375 C 13.460938 -35.835938 16.40625 -36.515625 19.75 -36.515625 C 23.195312 -36.515625 26.132812 -35.875 28.5625 -34.59375 C 31 -33.320312 32.707031 -31.421875 33.6875 -28.890625 L 28.5 -25.734375 L 27.875 -25.765625 C 27.132812 -27.367188 26.09375 -28.539062 24.75 -29.28125 C 23.414062 -30.019531 21.75 -30.390625 19.75 -30.390625 C 16.644531 -30.390625 14.269531 -29.40625 12.625 -27.4375 C 10.988281 -25.476562 10.171875 -22.332031 10.171875 -18 C 10.171875 -13.644531 10.9375 -10.484375 12.46875 -8.515625 C 14.007812 -6.546875 16.28125 -5.5625 19.28125 -5.5625 C 21.875 -5.5625 23.785156 -6.144531 25.015625 -7.3125 C 26.253906 -8.476562 26.875 -10.21875 26.875 -12.53125 L 26.875 -14.09375 L 18.34375 -14.09375 L 18.34375 -19.875 L 33.9375 -19.875 L 33.9375 0 L 27.140625 0 L 27.140625 -4.828125 L 26.625 -4.90625 C 25.882812 -3.175781 24.757812 -1.835938 23.25 -0.890625 C 21.75 0.046875 19.828125 0.515625 17.484375 0.515625 Z M 17.484375 0.515625 "/></g></g><g style="fill:#c61c9b;fill-opacity:1;"><g transform="translate(239.402171, 249.832458)"><path style="stroke:none" d="M 11.796875 -15.8125 L 11.796875 -5.953125 L 28.984375 -5.953125 L 28.984375 0 L 4.671875 0 L 4.671875 -36 L 28.59375 -36 L 28.59375 -30.046875 L 11.796875 -30.046875 L 11.796875 -21.625 L 26.46875 -21.625 L 26.46875 -15.8125 Z M 11.796875 -15.8125 "/></g></g><g style="fill:#662d91;fill-opacity:1;"><g transform="translate(128.475492, 270.11907)"><path style="stroke:none" d="M 5.4375 -10.53125 C 6.1875 -10.53125 6.828125 -10.390625 7.359375 -10.109375 C 7.898438 -9.835938 8.304688 -9.453125 8.578125 -8.953125 C 8.859375 -8.453125 9 -7.875 9 -7.21875 C 9 -6.5625 8.859375 -5.984375 8.578125 -5.484375 C 8.304688 -4.992188 7.898438 -4.609375 7.359375 -4.328125 C 6.828125 -4.054688 6.1875 -3.921875 5.4375 -3.921875 L 3.453125 -3.921875 L 3.453125 0 L 1.375 0 L 1.375 -10.53125 Z M 5.15625 -5.578125 C 6.320312 -5.578125 6.90625 -6.125 6.90625 -7.21875 C 6.90625 -8.320312 6.320312 -8.875 5.15625 -8.875 L 3.453125 -8.875 L 3.453125 -5.578125 Z M 5.15625 -5.578125 "/></g></g><g style="fill:#662d91;fill-opacity:1;"><g transform="translate(139.992508, 270.11907)"><path style="stroke:none" d="M 5.734375 0.15625 C 4.773438 0.15625 3.925781 -0.0390625 3.1875 -0.4375 C 2.445312 -0.832031 1.867188 -1.429688 1.453125 -2.234375 C 1.035156 -3.046875 0.828125 -4.054688 0.828125 -5.265625 C 0.828125 -6.472656 1.035156 -7.476562 1.453125 -8.28125 C 1.867188 -9.09375 2.445312 -9.695312 3.1875 -10.09375 C 3.925781 -10.488281 4.773438 -10.6875 5.734375 -10.6875 C 6.703125 -10.6875 7.550781 -10.488281 8.28125 -10.09375 C 9.019531 -9.695312 9.597656 -9.09375 10.015625 -8.28125 C 10.429688 -7.476562 10.640625 -6.472656 10.640625 -5.265625 C 10.640625 -4.054688 10.429688 -3.046875 10.015625 -2.234375 C 9.597656 -1.421875 9.019531 -0.816406 8.28125 -0.421875 C 7.550781 -0.0351562 6.703125 0.15625 5.734375 0.15625 Z M 5.734375 -1.65625 C 6.628906 -1.65625 7.3125 -1.941406 7.78125 -2.515625 C 8.25 -3.085938 8.484375 -4.003906 8.484375 -5.265625 C 8.484375 -6.523438 8.25 -7.441406 7.78125 -8.015625 C 7.3125 -8.585938 6.628906 -8.875 5.734375 -8.875 C 4.835938 -8.875 4.148438 -8.585938 3.671875 -8.015625 C 3.203125 -7.441406 2.96875 -6.523438 2.96875 -5.265625 C 2.96875 -4.003906 3.203125 -3.085938 3.671875 -2.515625 C 4.148438 -1.941406 4.835938 -1.65625 5.734375 -1.65625 Z M 5.734375 -1.65625 "/></g></g><g style="fill:#662d91;fill-opacity:1;"><g transform="translate(153.359075, 270.11907)"><path style="stroke:none" d="M 4.671875 0.15625 C 3.941406 0.15625 3.289062 0.0664062 2.71875 -0.109375 C 2.144531 -0.296875 1.671875 -0.535156 1.296875 -0.828125 C 0.921875 -1.117188 0.628906 -1.441406 0.421875 -1.796875 L 1.5625 -3.1875 L 1.75 -3.1875 C 2.0625 -2.71875 2.460938 -2.34375 2.953125 -2.0625 C 3.441406 -1.789062 4.015625 -1.65625 4.671875 -1.65625 C 5.222656 -1.65625 5.640625 -1.769531 5.921875 -2 C 6.210938 -2.238281 6.359375 -2.5625 6.359375 -2.96875 C 6.359375 -3.21875 6.3125 -3.425781 6.21875 -3.59375 C 6.125 -3.769531 5.96875 -3.914062 5.75 -4.03125 C 5.539062 -4.15625 5.257812 -4.257812 4.90625 -4.34375 L 3.546875 -4.65625 C 2.597656 -4.875 1.890625 -5.234375 1.421875 -5.734375 C 0.960938 -6.234375 0.734375 -6.882812 0.734375 -7.6875 C 0.734375 -8.28125 0.882812 -8.800781 1.1875 -9.25 C 1.488281 -9.707031 1.921875 -10.0625 2.484375 -10.3125 C 3.054688 -10.5625 3.738281 -10.6875 4.53125 -10.6875 C 5.34375 -10.6875 6.035156 -10.578125 6.609375 -10.359375 C 7.191406 -10.148438 7.679688 -9.820312 8.078125 -9.375 L 7.046875 -7.96875 L 6.875 -7.96875 C 6.570312 -8.28125 6.226562 -8.515625 5.84375 -8.671875 C 5.457031 -8.828125 5.019531 -8.90625 4.53125 -8.90625 C 3.957031 -8.90625 3.519531 -8.800781 3.21875 -8.59375 C 2.925781 -8.394531 2.78125 -8.117188 2.78125 -7.765625 C 2.78125 -7.429688 2.882812 -7.164062 3.09375 -6.96875 C 3.300781 -6.769531 3.660156 -6.617188 4.171875 -6.515625 L 5.5625 -6.21875 C 6.582031 -6.007812 7.320312 -5.644531 7.78125 -5.125 C 8.25 -4.601562 8.484375 -3.929688 8.484375 -3.109375 C 8.484375 -2.453125 8.335938 -1.878906 8.046875 -1.390625 C 7.765625 -0.898438 7.335938 -0.519531 6.765625 -0.25 C 6.191406 0.0195312 5.492188 0.15625 4.671875 0.15625 Z M 4.671875 0.15625 "/></g></g><g style="fill:#662d91;fill-opacity:1;"><g transform="translate(164.17797, 270.11907)"><path style="stroke:none" d="M 8.4375 -10.53125 L 8.4375 -8.78125 L 5.40625 -8.78125 L 5.40625 0 L 3.328125 0 L 3.328125 -8.78125 L 0.28125 -8.78125 L 0.28125 -10.53125 Z M 8.4375 -10.53125 "/></g></g><g style="fill:#662d91;fill-opacity:1;"><g transform="translate(174.802597, 270.11907)"><path style="stroke:none" d="M 3.453125 0 L 1.375 0 L 1.375 -10.53125 L 3.453125 -10.53125 Z M 3.453125 0 "/></g></g><g style="fill:#662d91;fill-opacity:1;"><g transform="translate(181.526625, 270.11907)"><path style="stroke:none" d="M 3.390625 0 L 1.375 0 L 1.375 -10.53125 L 3.75 -10.53125 L 7.984375 -3.75 L 8.171875 -3.78125 L 8.171875 -10.53125 L 10.171875 -10.53125 L 10.171875 0 L 8.03125 0 L 3.5625 -7.25 L 3.390625 -7.21875 Z M 3.390625 0 "/></g></g><g style="fill:#662d91;fill-opacity:1;"><g transform="translate(194.96516, 270.11907)"><path style="stroke:none" d="M 5.109375 0.15625 C 4.234375 0.15625 3.472656 -0.0390625 2.828125 -0.4375 C 2.191406 -0.84375 1.695312 -1.453125 1.34375 -2.265625 C 1 -3.078125 0.828125 -4.078125 0.828125 -5.265625 C 0.828125 -6.460938 1.035156 -7.46875 1.453125 -8.28125 C 1.867188 -9.09375 2.445312 -9.695312 3.1875 -10.09375 C 3.9375 -10.488281 4.800781 -10.6875 5.78125 -10.6875 C 6.78125 -10.6875 7.632812 -10.5 8.34375 -10.125 C 9.0625 -9.75 9.566406 -9.191406 9.859375 -8.453125 L 8.328125 -7.53125 L 8.15625 -7.53125 C 7.9375 -8 7.628906 -8.34375 7.234375 -8.5625 C 6.847656 -8.78125 6.363281 -8.890625 5.78125 -8.890625 C 4.875 -8.890625 4.175781 -8.601562 3.6875 -8.03125 C 3.207031 -7.457031 2.96875 -6.535156 2.96875 -5.265625 C 2.96875 -3.992188 3.191406 -3.066406 3.640625 -2.484375 C 4.097656 -1.910156 4.765625 -1.625 5.640625 -1.625 C 6.398438 -1.625 6.957031 -1.796875 7.3125 -2.140625 C 7.675781 -2.484375 7.859375 -2.992188 7.859375 -3.671875 L 7.859375 -4.125 L 5.359375 -4.125 L 5.359375 -5.8125 L 9.921875 -5.8125 L 9.921875 0 L 7.9375 0 L 7.9375 -1.40625 L 7.78125 -1.4375 C 7.570312 -0.925781 7.242188 -0.53125 6.796875 -0.25 C 6.359375 0.0195312 5.796875 0.15625 5.109375 0.15625 Z M 5.109375 0.15625 "/></g></g><g style="fill:#662d91;fill-opacity:1;"><g transform="translate(207.842353, 270.11907)"><path style="stroke:none" d=""/></g></g><g style="fill:#662d91;fill-opacity:1;"><g transform="translate(213.220609, 270.11907)"><path style="stroke:none" d="M 10.109375 0 L 7.921875 0 L 7.125 -2.421875 L 3.09375 -2.421875 L 2.296875 0 L 0.15625 0 L 3.796875 -10.53125 L 6.46875 -10.53125 Z M 5 -8.328125 L 3.65625 -4.171875 L 6.546875 -4.171875 L 5.1875 -8.328125 Z M 5 -8.328125 "/></g></g><g style="fill:#662d91;fill-opacity:1;"><g transform="translate(225.378135, 270.11907)"><path style="stroke:none" d="M 5.4375 -10.53125 C 6.1875 -10.53125 6.828125 -10.390625 7.359375 -10.109375 C 7.898438 -9.835938 8.304688 -9.453125 8.578125 -8.953125 C 8.859375 -8.453125 9 -7.875 9 -7.21875 C 9 -6.5625 8.859375 -5.984375 8.578125 -5.484375 C 8.304688 -4.992188 7.898438 -4.609375 7.359375 -4.328125 C 6.828125 -4.054688 6.1875 -3.921875 5.4375 -3.921875 L 3.453125 -3.921875 L 3.453125 0 L 1.375 0 L 1.375 -10.53125 Z M 5.15625 -5.578125 C 6.320312 -5.578125 6.90625 -6.125 6.90625 -7.21875 C 6.90625 -8.320312 6.320312 -8.875 5.15625 -8.875 L 3.453125 -8.875 L 3.453125 -5.578125 Z M 5.15625 -5.578125 "/></g></g><g style="fill:#662d91;fill-opacity:1;"><g transform="translate(236.89515, 270.11907)"><path style="stroke:none" d="M 5.4375 -10.53125 C 6.1875 -10.53125 6.828125 -10.390625 7.359375 -10.109375 C 7.898438 -9.835938 8.304688 -9.453125 8.578125 -8.953125 C 8.859375 -8.453125 9 -7.875 9 -7.21875 C 9 -6.5625 8.859375 -5.984375 8.578125 -5.484375 C 8.304688 -4.992188 7.898438 -4.609375 7.359375 -4.328125 C 6.828125 -4.054688 6.1875 -3.921875 5.4375 -3.921875 L 3.453125 -3.921875 L 3.453125 0 L 1.375 0 L 1.375 -10.53125 Z M 5.15625 -5.578125 C 6.320312 -5.578125 6.90625 -6.125 6.90625 -7.21875 C 6.90625 -8.320312 6.320312 -8.875 5.15625 -8.875 L 3.453125 -8.875 L 3.453125 -5.578125 Z M 5.15625 -5.578125 "/></g></g></g></svg>